<svg xmlns="http://www.w3.org/2000/svg" width="1100" height="620" viewBox="0 0 1100 620">
<defs><marker id="arrow" markerWidth="10" markerHeight="10" refX="8" refY="3" orient="auto"><path d="M0,0 L0,6 L9,3 z" fill="black"/></marker></defs>
<text x="550" y="35" text-anchor="middle" font-family="Arial" font-size="24" font-weight="bold">Azure App Registration Secret Lifecycle Automation</text>
<rect x="60" y="90" width="180" height="70" rx="10" fill="white" stroke="black" stroke-width="2"/><text text-anchor="middle" font-family="Arial" font-size="13" x="150.0" y="117.0"><tspan x="150.0" dy="0">Azure Automation</tspan><tspan x="150.0" dy="16">Runbooks</tspan></text>
<rect x="300" y="90" width="180" height="70" rx="10" fill="white" stroke="black" stroke-width="2"/><text text-anchor="middle" font-family="Arial" font-size="13" x="390.0" y="117.0"><tspan x="390.0" dy="0">Managed</tspan><tspan x="390.0" dy="16">Identity</tspan></text>
<rect x="540" y="90" width="200" height="70" rx="10" fill="white" stroke="black" stroke-width="2"/><text text-anchor="middle" font-family="Arial" font-size="13" x="640.0" y="117.0"><tspan x="640.0" dy="0">Microsoft Entra ID</tspan><tspan x="640.0" dy="16">App Registrations</tspan></text>
<rect x="800" y="90" width="180" height="70" rx="10" fill="white" stroke="black" stroke-width="2"/><text text-anchor="middle" font-family="Arial" font-size="13" x="890.0" y="117.0"><tspan x="890.0" dy="0">Password</tspan><tspan x="890.0" dy="16">Credentials</tspan></text>
<rect x="60" y="290" width="180" height="70" rx="10" fill="white" stroke="black" stroke-width="2"/><text text-anchor="middle" font-family="Arial" font-size="13" x="150.0" y="317.0"><tspan x="150.0" dy="0">Storage Account</tspan><tspan x="150.0" dy="16">CSV Reports</tspan></text>
<rect x="300" y="290" width="180" height="70" rx="10" fill="white" stroke="black" stroke-width="2"/><text text-anchor="middle" font-family="Arial" font-size="13" x="390.0" y="317.0"><tspan x="390.0" dy="0">Key Vault</tspan><tspan x="390.0" dy="16">New Secrets</tspan></text>
<rect x="540" y="290" width="200" height="70" rx="10" fill="white" stroke="black" stroke-width="2"/><text text-anchor="middle" font-family="Arial" font-size="13" x="640.0" y="317.0"><tspan x="640.0" dy="0">Log Analytics</tspan><tspan x="640.0" dy="16">Custom Logs</tspan></text>
<rect x="800" y="290" width="180" height="70" rx="10" fill="white" stroke="black" stroke-width="2"/><text text-anchor="middle" font-family="Arial" font-size="13" x="890.0" y="317.0"><tspan x="890.0" dy="0">Azure Monitor</tspan><tspan x="890.0" dy="16">Alerts</tspan></text>
<rect x="800" y="470" width="180" height="70" rx="10" fill="white" stroke="black" stroke-width="2"/><text text-anchor="middle" font-family="Arial" font-size="13" x="890.0" y="497.0"><tspan x="890.0" dy="0">Action Group</tspan><tspan x="890.0" dy="16">Email / ITSM</tspan></text>
<line x1="240" y1="125" x2="300" y2="125" stroke="black" stroke-width="2" marker-end="url(#arrow)"/>
<line x1="480" y1="125" x2="540" y2="125" stroke="black" stroke-width="2" marker-end="url(#arrow)"/>
<line x1="740" y1="125" x2="800" y2="125" stroke="black" stroke-width="2" marker-end="url(#arrow)"/>
<line x1="150" y1="160" x2="150" y2="290" stroke="black" stroke-width="2" marker-end="url(#arrow)"/>
<line x1="390" y1="160" x2="390" y2="290" stroke="black" stroke-width="2" marker-end="url(#arrow)"/>
<line x1="640" y1="160" x2="640" y2="290" stroke="black" stroke-width="2" marker-end="url(#arrow)"/>
<line x1="740" y1="325" x2="800" y2="325" stroke="black" stroke-width="2" marker-end="url(#arrow)"/>
<line x1="890" y1="360" x2="890" y2="470" stroke="black" stroke-width="2" marker-end="url(#arrow)"/>
</svg>